<svg xmlns="http://www.w3.org/2000/svg" viewBox="0 0 999 210" width="999" height="210">
	<style>
		tspan { white-space:pre }
		.shp0 { fill: #ffffff } 
	</style>
	<path id="Layer" fill-rule="evenodd" class="shp0" d="M619.76 157.7C605.75 157.7 592.27 155.09 584.38 152.06L584.38 41.47L613.27 41.47L613.27 78.65C616.95 77.33 623.26 76.32 628.16 76.32C652.68 76.32 669.48 89.99 669.48 114.07C669.48 143.6 651.8 157.7 619.76 157.7M622.37 94.39C619.06 94.39 615.54 95.14 613.27 96.01L613.27 138.02C615.02 138.58 618.35 139.01 621.68 139.01C633.58 139.01 640.59 130.73 640.59 116.13C640.59 102.28 633.92 94.39 622.37 94.39ZM717.61 157.7C687.87 157.7 673.15 148.56 673.15 131.75C673.15 110.89 698.73 106.05 727.24 104.79L727.24 101.72C727.24 95.45 722.02 92.5 712.19 92.5C703.08 92.5 692.23 95.02 685.43 97.32L678.4 81.28C686.8 78.52 698.49 75.04 715.74 75.04C741.46 75.04 754.42 83.72 754.42 104.6L754.42 152.07C747.24 155.08 732.69 157.7 717.61 157.7ZM699.95 131.2C699.95 137.59 706.43 141.1 716.74 141.1C720.78 141.1 725.34 140.52 727.25 139.89L727.25 119.77C711.69 120.41 699.95 121.84 699.95 131.2ZM818.48 155.95L818.48 104.91C818.48 98.33 814.78 94 804.46 94C799.07 94 794.31 96.01 794.31 96.01L794.31 155.95L765.43 155.95L765.43 81.28C775.96 77.9 788.38 75.04 804.82 75.04C834.42 75.04 847.37 85.03 847.37 102.16L847.37 155.95L818.48 155.95ZM887.47 116.7L887.12 116.7L887.12 155.95L858.59 155.95L858.59 41.47L887.12 41.47L887.12 111.06L887.47 111.06L913.56 77.33L946.13 77.33L916.72 113.94L948.59 155.95L916.37 155.95L887.47 116.7ZM530.03 187.38L499.74 187.38L513.91 155.95L478.37 77.33L509.8 77.33L528.97 133.18L547.95 77.33L579.41 77.33L530.03 187.38ZM394.98 155.95L367.5 155.95L358.74 83.39L332.98 155.95L314.79 155.95L289.03 83.39L280.28 155.95L252.8 155.95L268.02 50.37L301.65 50.37L323.89 115.6L346.1 50.37L379.73 50.37L394.98 155.95ZM443.11 157.7C413.32 157.7 398.64 148.56 398.64 131.75C398.64 110.89 424.2 106.05 452.74 104.79L452.74 101.72C452.74 95.45 447.48 92.5 437.68 92.5C428.56 92.5 417.71 95.02 410.89 97.32L403.87 81.28C412.28 78.52 426.46 75.04 441.18 75.04C466.93 75.04 479.87 83.73 479.87 104.6L479.87 152.07C472.71 155.08 458.15 157.7 443.11 157.7ZM425.41 131.2C425.41 137.59 431.9 141.1 442.23 141.1C446.24 141.1 450.78 140.52 452.74 139.89L452.74 119.77C437.15 120.41 425.41 121.84 425.41 131.2ZM226.3 103.09C226.3 151.68 186.93 191.05 138.35 191.05C89.77 191.05 50.39 151.68 50.39 103.09C50.39 54.51 89.77 15.16 138.35 15.16C186.93 15.16 226.3 54.51 226.3 103.09ZM219.24 103.09C219.24 58.43 183.05 22.13 138.35 22.13C93.68 22.13 57.46 58.43 57.46 103.09C57.46 147.77 93.68 183.99 138.35 183.99C183.04 183.99 219.24 147.77 219.24 103.09Z" />
	<path id="Layer" fill-rule="evenodd" class="shp0" d="M103.26 99.07C96.96 97.45 91.43 104.82 88.35 110.38C89.42 102.77 98.78 90.3 103.26 99.07ZM89.42 99.15C91.53 91.93 96.53 89.28 99.21 91.41C95.57 92.54 92.94 94.69 89.42 99.15ZM105.49 110.76C103.26 104.14 93.99 111.72 90.77 115.83C91.64 108.44 99.66 101.72 103.37 102.66C108.4 103.99 108.73 108.03 105.49 110.76ZM155.98 130.02C156.56 120.5 147.31 116.06 145.53 106.3C143.79 96.54 159.97 80.94 149.76 64.96C169.05 80.52 153.94 89.75 163.68 102.68C159.9 101.53 156.16 98.19 155.03 96.43C149.61 103.57 168.33 113.38 155.98 130.02ZM124.93 53.25C127.2 53.27 131.14 54.88 129.53 56.71C124.19 61.69 116.96 59.64 111.22 64.7C113.58 58.43 124.05 57.54 124.93 53.25Z" />
	<path id="Layer" fill-rule="evenodd" class="shp0" d="M129.25 68.29C138.73 68.07 127.77 73.03 124.56 84.42C123.12 89.47 111.81 87.89 110.11 85.3C112.95 85.87 121.84 83.94 125.32 71.96C125.43 71.66 125.13 71.56 124.93 71.83C120.54 76.59 117.29 77.45 115.45 76.23C113.47 77.82 112.58 78.99 110.8 82.24C107.57 79.37 109.02 76.81 112.11 73.88C112.54 73.47 112.04 72.95 111.49 72.71C108.66 71.48 108.08 67.53 110.98 66.05C110.17 68.56 112.95 70.06 115.36 67.88C117.87 65.63 121.89 68.89 126.92 66.93C127.45 58.88 142.85 57.85 133.27 53.2C142.46 54.33 144.51 57.78 142.28 60.3C140.43 62.47 131.82 65.28 129.25 68.29ZM118.34 74.28C119.63 74.3 120.75 71.19 123.29 69.87C120.86 70.02 119.55 69.9 118.73 69.88C120.04 73.25 117.74 74.36 116.82 72.03C117 73.31 117.64 74.28 118.34 74.28ZM147.06 54.17C146.22 51.74 148.76 45.01 150.52 45.96C154.61 48.18 157.37 57.8 156.8 62.66C153.81 59.1 151.65 57.15 147.06 54.17" />
	<path id="Layer" class="shp0" d="M73.83 93.23C76.79 85.42 83.99 76.13 95.67 69.23C98.37 62.25 97.48 57.54 125.78 46.56C126.49 42.39 126.37 37.36 127.55 37.36C128.77 37.36 132.94 39.25 135.93 43.52C137.17 43.43 138.26 43.3 139.01 43.15C139.53 40.72 141.22 34.04 143.44 30.58C145.46 27.4 149.4 27.06 154.48 31.26C159.75 35.55 163.46 37.33 170.68 46.56C176.78 49.29 186.33 52.8 194.59 62.95C191 60.55 186.94 59.66 183.59 59.31C190.33 65.2 194.78 74.96 191.41 89.22C190.07 75.89 180.28 70.29 174.29 66.09C177.54 77.31 163.46 73.41 159.16 64.96C160.58 65.42 162.05 65.36 162.94 64.8C162.45 47.62 154.39 37.74 150.8 34.79C146.17 30.95 143.7 40.17 142.14 47.06C141.65 49.37 139.67 51.02 137.17 50.95C137.73 50.11 138.35 47.89 138.44 47.16C131.33 47.76 123.31 51.95 118.39 54.17C105.87 59.83 102.74 62.65 99.97 72.14C90.06 76.35 78.62 87.77 73.83 93.23" />
	<path id="Layer" class="shp0" d="M136.26 90.82C137.65 92.42 145.9 104.88 136.34 120.73C138.95 109.07 131.68 86.74 123.67 98.17C129.11 100.52 130.88 104.96 129.42 109.29C127.2 105.11 121.54 100.61 115.93 102.46C113.14 103.46 109.42 103.49 106.65 99.33C103.04 94.09 109.1 87.52 98.78 88.05C111.27 81.72 107.65 94.01 113.67 95.52C120.67 97.15 121.5 92.86 123.91 90.09C125.85 87.72 129.42 85.95 133.19 88.46C134.98 83.01 132.36 74.34 137.48 69.78C139.37 68.09 145.38 68.33 148.49 70.76C144.07 70.71 138.86 75.99 136.26 90.82" />
	<path id="Layer" fill-rule="evenodd" class="shp0" d="M200.14 69.04C222.52 109.51 201.18 161.31 153.39 172.3C159.09 164.86 163.68 154.42 163.11 150.85C156.9 155.35 144.71 157.42 141.93 155.9C153.29 145.62 151.57 134.76 144.9 133.93C138.25 133.09 130.51 143.28 131.14 157.24C125.53 154.75 107.44 158.22 105.78 143.88C103.71 140.74 102.81 135.38 103.47 133.23C119.75 142.57 112.81 121.57 122.63 119.59C121.57 116.63 113.35 109.9 102.3 120.98C101.79 122.78 101.91 129.98 102.78 132.55C97.7 131.78 93.7 126.99 92.78 125.7C87.38 125.19 82.16 123.68 77.06 110.04C72.81 107.28 70.63 104.51 69.06 101.41C69.12 100.7 69.73 97.29 72.92 94.38C72.92 94.38 71.78 97.37 72.46 98.63C81.09 91.7 82.19 98.37 86.63 97.45C86.71 102.7 81.3 106.27 81.71 111.33C84.88 119.66 87.01 120.54 93.24 121.48C100.7 117.8 106.87 109.28 116 109.11C123.4 109.06 132.7 112.64 134.22 122.87C135.27 130.23 119.62 140.68 113.47 138.59C103.37 149.52 120.26 153.12 125.88 151.45C129.9 132.92 139.81 127.63 147.59 130.29C156.26 133.2 157.41 144.19 151.49 150.37C156.26 149.23 163.19 145.5 165.55 136.61C167.43 138.58 168.02 143.34 168.16 145C173.14 137.7 171.52 121.85 167.52 115.76C170.78 116.05 173.79 117.31 177.04 120.04C179.27 108.35 171.73 93.72 168.33 91.22C170.59 91.02 173.79 91.22 178.19 93.31C177.04 86.3 170.78 81.8 170.78 76.44C173.3 81.42 186.72 82.79 185.97 101.11C184.41 99.67 181.03 98.19 179.37 97.95C184.13 109.85 183.8 121.57 181.31 129.87C180.28 128.17 178.65 126.21 177.04 125.54C178.65 132.12 176.6 150.15 172.1 157.42C202.27 136.61 181.47 104.92 194.78 92.01C191.95 105.67 198.98 117.38 198.16 125.38C204.72 112.59 206.5 91.22 200.14 69.04M120.3 127.43C119.62 129.59 119.8 131.77 118.73 132.75C124.95 129.77 127.52 128.47 128.03 124.33C128.26 122.78 123.91 122.34 122.82 122.53C123.69 123.64 124.84 126.96 123.74 127.79C122.61 128.61 121.54 127.61 120.3 127.43M95.43 124.08C95.47 126.47 100.3 129.52 100.3 129.52C100.3 129.52 98.98 124.63 99.41 121.05C98.35 121.16 95.96 122.8 95.43 124.08ZM79.57 108.2C81.42 107.02 80.8 105.51 80.53 104.92C80.06 104 77.8 103.36 78.51 101.32C78.97 99.99 80.53 99.99 80.78 99.35C81.04 98.82 79.89 97.85 78.14 98.31C75.71 99 73.81 101.04 73.36 101.55C73.74 102.9 77.3 106.61 79.57 108.2M107.74 141.16C107.74 141.16 107.74 141.16 107.74 141.16C107.74 141.16 107.74 141.16 107.74 141.16M107.74 141.16C109.24 140.53 110.59 138.24 110.59 138.24C110.59 138.24 107.74 137.56 105.64 136.21C105.49 138.52 107.14 140.67 107.74 141.16Z" />
</svg>